<svg xmlns="http://www.w3.org/2000/svg" width="49" height="48" viewBox="0 0 49 48">
    <path fill="#FFF" fill-rule="evenodd" d="M46.783 31.653h-19.57l.983-1.257H42.09c.301 0 .52-.218.52-.52 0-.272-.246-.491-.52-.491H28.988l.955-1.23h7.07c.246 0 .437-.218.437-.519 0-.273-.191-.519-.437-.519h-18.78l11.492-15.002H10.782v4.1h10.072L10.291 29.932l-2.184 2.76h8.38a4.81 4.81 0 0 1 4.449-3.007c2.02 0 3.74 1.23 4.45 3.007h21.019c-3.487 8.92-12.163 15.247-22.303 15.247C10.892 47.939.164 37.2.164 23.975.164 10.722 10.891.01 24.102.01c13.21 0 23.938 10.74 23.938 23.965 0 2.685-.442 5.267-1.257 7.678zM24.675 34.55c0-2.05-1.637-3.69-3.684-3.69a3.69 3.69 0 0 0 0 7.378c2.02 0 3.684-1.64 3.684-3.688z"/>
</svg>
